<svg width="71" height="71" viewBox="0 0 71 71" fill="none" xmlns="http://www.w3.org/2000/svg">
<path d="M36.9111 12.2658C45.8232 12.2658 52.8256 19.5149 52.8256 28.7412C52.8256 38.2969 43.5952 52.4658 36.9111 61.3625C30.227 52.4658 20.9966 38.2969 20.9966 28.7412C20.9966 19.5149 27.999 12.2658 36.9111 12.2658ZM36.9111 8.03625C24.4978 8.03625 16.9111 15.8904 16.9111 28.7412C16.9111 45.8756 36.9111 68.0363 36.9111 68.0363C36.9111 68.0363 56.9111 45.8756 56.9111 28.7412C56.9111 15.8904 49.3244 8.03625 36.9111 8.03625Z" fill="#008E4D"/>
<path d="M42.9449 32.2772C42.5859 30.9761 41.81 29.8286 40.7361 29.0108C39.6623 28.1931 38.3498 27.7502 37 27.7502C35.6502 27.7502 34.3377 28.1931 33.2638 29.0108C32.1899 29.8286 31.414 30.9761 31.055 32.2772L30.1997 35.378C30.0461 35.9348 30.0232 36.5195 30.1327 37.0865C30.2423 37.6536 30.4813 38.1876 30.8312 38.6471C31.1811 39.1066 31.6324 39.4791 32.1499 39.7355C32.6674 39.9918 33.2371 40.1252 33.8146 40.1252H40.1853C40.7628 40.1252 41.3326 39.9918 41.8501 39.7355C42.3676 39.4791 42.8189 39.1066 43.1688 38.6471C43.5186 38.1876 43.7577 37.6536 43.8672 37.0865C43.9768 36.5195 43.9538 35.9348 43.8003 35.378L42.9449 32.2772ZM41.9754 37.7382C41.7664 38.0149 41.4958 38.2391 41.1851 38.3931C40.8744 38.547 40.5321 38.6265 40.1853 38.6252H33.8146C33.4681 38.6252 33.1263 38.5452 32.8157 38.3914C32.5052 38.2375 32.2345 38.0141 32.0245 37.7384C31.8146 37.4627 31.6712 37.1422 31.6054 36.802C31.5397 36.4618 31.5535 36.1109 31.6456 35.7769L32.501 32.6762C32.7726 31.6915 33.3598 30.8231 34.1725 30.2042C34.9852 29.5854 35.9785 29.2502 37 29.2502C38.0214 29.2502 39.0147 29.5854 39.8274 30.2042C40.6401 30.8231 41.2273 31.6915 41.4989 32.6762L42.3543 35.7769C42.4478 36.1108 42.4622 36.4619 42.3965 36.8024C42.3307 37.1428 42.1865 37.4633 41.9754 37.7384V37.7382ZM31.8484 28.796C31.9789 27.9804 31.8058 27.1073 31.3609 26.3368C30.916 25.5664 30.2462 24.9799 29.4748 24.6851C28.6487 24.3696 27.806 24.4199 27.1013 24.8266C25.7004 25.6354 25.3317 27.629 26.2797 29.2705C26.7244 30.041 27.3942 30.6276 28.1657 30.9222C28.5074 31.0554 28.8706 31.1248 29.2374 31.1271C29.6943 31.1288 30.1435 31.0093 30.5391 30.7808C31.2434 30.374 31.7084 29.6692 31.8484 28.796ZM30.3672 28.5589C30.3001 28.9775 30.0948 29.3052 29.789 29.4817C29.4833 29.6582 29.0968 29.6721 28.7007 29.5209C28.2501 29.3489 27.8516 28.9936 27.5785 28.5205C27.0535 27.6112 27.1783 26.5143 27.8513 26.1256C28.0205 26.0296 28.2121 25.9801 28.4067 25.9823C28.5891 25.9841 28.7697 26.0194 28.9395 26.0862C29.3901 26.2584 29.7887 26.6136 30.0618 27.0866C30.3349 27.5597 30.4433 28.0826 30.3672 28.5589ZM32.0109 25.6885C32.5435 26.1143 33.1517 26.336 33.7667 26.336C33.9509 26.3359 34.1346 26.3161 34.3146 26.2769C35.8954 25.9332 36.8539 24.1467 36.4512 22.2945C36.2623 21.4251 35.803 20.6624 35.158 20.1467C34.4673 19.5946 33.6492 19.3855 32.8542 19.5584C31.2735 19.902 30.3151 21.6885 30.7177 23.5408C30.9066 24.4102 31.3659 25.1729 32.0109 25.6885ZM33.1728 21.0242C33.2457 21.0085 33.3201 21.0006 33.3946 21.0008C33.6734 21.0008 33.9602 21.1098 34.2214 21.3186C34.5981 21.6198 34.8694 22.0796 34.9854 22.6134C35.2085 23.6397 34.7555 24.6462 33.996 24.8113C33.651 24.8863 33.2786 24.7819 32.9476 24.5172C32.5708 24.216 32.2995 23.7562 32.1835 23.2224C31.9603 22.1958 32.4134 21.1893 33.1728 21.0242ZM46.8986 24.8266C46.1942 24.4199 45.3511 24.3696 44.5251 24.6851C43.7537 24.9798 43.0839 25.5664 42.6391 26.3368C42.1943 27.1073 42.0212 27.9806 42.1516 28.796C42.2914 29.6692 42.7563 30.374 43.4609 30.7808C43.8566 31.0093 44.3057 31.1288 44.7627 31.1271C45.1294 31.1249 45.4926 31.0554 45.8344 30.9222C46.6058 30.6276 47.2756 30.041 47.7204 29.2705C48.6682 27.629 48.2996 25.6354 46.8986 24.8266ZM46.4214 28.5205C46.1483 28.9936 45.7498 29.3489 45.2992 29.5209C44.9033 29.6723 44.5167 29.6583 44.211 29.4817C43.9052 29.3051 43.7 28.9775 43.6329 28.5589C43.5567 28.0826 43.665 27.5598 43.9382 27.0871C44.2113 26.6143 44.6098 26.2588 45.0604 26.0866C45.2302 26.0197 45.4108 25.9844 45.5933 25.9825C45.7878 25.9804 45.9794 26.0298 46.1486 26.1258C46.8216 26.5142 46.9466 27.6109 46.4214 28.5205ZM39.6853 26.2769C39.8653 26.3161 40.049 26.3359 40.2332 26.336C40.8482 26.336 41.4567 26.1143 41.9891 25.6885C42.634 25.1729 43.0933 24.4102 43.2822 23.5408C43.6849 21.6886 42.7264 19.9021 41.1457 19.5585C40.3508 19.3857 39.5326 19.5946 38.8419 20.1468C38.1969 20.6624 37.7376 21.4252 37.5487 22.2945C37.1461 24.1467 38.1045 25.9332 39.6853 26.2769ZM39.0145 22.6131C39.1305 22.0794 39.4018 21.6194 39.7786 21.3184C40.0398 21.1096 40.3265 21.0005 40.6053 21.0005C40.6799 21.0004 40.7542 21.0082 40.8271 21.024C41.5865 21.1891 42.0396 22.1958 41.8165 23.2219C41.7004 23.7557 41.4291 24.2157 41.0525 24.5167C40.7215 24.7814 40.3493 24.8858 40.004 24.8109C39.2445 24.646 38.7914 23.6393 39.0145 22.6131Z" fill="#008E4D" stroke="#008E4D"/>
</svg>
